inDegrees=no
num_controls=7
num_derivatives=13
num_iterations=83
num_multipliers=7
num_parameters=0
num_slacks=7
num_states=26
objective=0.333862
objective_accelerations=0.037447
objective_balance=0.001341
objective_effort=0.027388
objective_height=0.266212
objective_ligament=0.001473
solver_duration=873.766273
status=Solve_Succeeded
success=true
DataType=double
version=3
OpenSimVersion=4.5
endheader
time	/jointset/ground_pelvis/pelvis_tilt/value	/jointset/ground_pelvis/pelvis_tx/value	/jointset/ground_pelvis/pelvis_ty/value	/jointset/hip_r/hip_flexion_r/value	/jointset/hip_r/hip_adduction_r/value	/jointset/hip_r/hip_rotation_r/value	/jointset/back/lumbar_extension/value	/jointset/patellofemoral_r/patellar_flexion_r/value	/jointset/knee_r/knee_flexion_r/value	/jointset/knee_r/knee_adduction_r/value	/jointset/knee_r/knee_rotation_r/value	/jointset/ankle_r/ankle_angle_r/value	/jointset/subtalar_r/subtalar_angle_r/value	/jointset/ground_pelvis/pelvis_tilt/speed	/jointset/ground_pelvis/pelvis_tx/speed	/jointset/ground_pelvis/pelvis_ty/speed	/jointset/hip_r/hip_flexion_r/speed	/jointset/hip_r/hip_adduction_r/speed	/jointset/hip_r/hip_rotation_r/speed	/jointset/back/lumbar_extension/speed	/jointset/patellofemoral_r/patellar_flexion_r/speed	/jointset/knee_r/knee_flexion_r/speed	/jointset/knee_r/knee_adduction_r/speed	/jointset/knee_r/knee_rotation_r/speed	/jointset/ankle_r/ankle_angle_r/speed	/jointset/subtalar_r/subtalar_angle_r/speed	/forceset/tau_hip_flexion_r	/forceset/tau_hip_adduction_r	/forceset/tau_hip_rotation_r	/forceset/tau_knee_flexion_r	/forceset/tau_ankle_angle_r	/forceset/tau_subtalar_angle_r	/forceset/tau_lumbar_extension	lambda_cid13_p0	lambda_cid14_p0	lambda_cid14_p1	lambda_cid14_p2	lambda_cid14_p3	lambda_cid14_p4	lambda_cid14_p5	/jointset/ground_pelvis/pelvis_tilt/accel	/jointset/ground_pelvis/pelvis_tx/accel	/jointset/ground_pelvis/pelvis_ty/accel	/jointset/hip_r/hip_flexion_r/accel	/jointset/hip_r/hip_adduction_r/accel	/jointset/hip_r/hip_rotation_r/accel	/jointset/back/lumbar_extension/accel	/jointset/patellofemoral_r/patellar_flexion_r/accel	/jointset/knee_r/knee_flexion_r/accel	/jointset/knee_r/knee_adduction_r/accel	/jointset/knee_r/knee_rotation_r/accel	/jointset/ankle_r/ankle_angle_r/accel	/jointset/subtalar_r/subtalar_angle_r/accel	gamma_cid13_p0	gamma_cid14_p0	gamma_cid14_p1	gamma_cid14_p2	gamma_cid14_p3	gamma_cid14_p4	gamma_cid14_p5
0	-0.009941178558833899	0.1332285271383602	0.9327782218449033	0.1934211968871041	-0.2349381951881384	-0.2338258787093641	-0.2903787966825928	0.2311786273363382	0.2311786273363406	0.147826911119778	0.1697907967342781	0.089344008118978	0.05538529042893085	0	0	0	0	0	0	0	0	0	0	0	0	0	0.1134162661605638	-0.04559155631953359	0.004778952368066128	-0.2561979859021239	0.1395757491786458	-0.1230959564058397	-0.03282655918911022	-29.87267016175619	-3.176263812050528	-49.32214781646715	2.922908480927572	-0.7407918246409415	-610.6826501765045	22.3132344992978	-2.170828677695956	-1.885055515073821	-0.847265743760915	10.42643966475298	0.3038077046689036	2.191311035581985	-6.379115557747826	10.21988986246108	10.21988986246111	-3.252161566113995	0.3905599683118268	2.798952304804235	1.138342789201323	6.456986994841222e-08	5.016029925588144e-08	-4.156373007799137e-07	3.706949631232277e-07	6.754828197581095e-09	2.499691641429912e-07	-4.164467914529115e-07
0.01	-0.0100438641266498	0.1331365615917166	0.9327370583645666	0.1939287347609255	-0.2349208572750714	-0.2337152124330343	-0.2906981251572758	0.2316801965611898	0.2316801965611863	0.1476623368418148	0.1698053874158932	0.08948340469273765	0.05544469125744469	-0.02048237022733487	-0.0181853894204485	-0.008211694743108264	0.1009115070678318	0.003403542997105147	0.02208100869021783	-0.06333821106254119	0.09982820485969449	0.09982820485969471	-0.03264170242481035	0.002856498494977236	0.02787794005735529	0.01180346615768613	0.1117579801320627	-0.0643245140747018	0.004835694938176572	-0.2589551694523694	0.141868445892981	-0.108659964800349	-0.03036093332881631	-29.87763749539558	-1.71418477979081	-42.61769114278885	1.649680189743838	-3.858539531656127	-612.3584776924597	36.62895402753845	-1.978731994093132	-1.754121318157769	-0.8049211471263267	9.834097608915911	0.3490215191686052	2.208731676656346	-6.232051299542743	9.791426867123056	9.791426867123048	-3.229232930459932	0.2240210498081265	2.782016977709795	1.189821783081132	8.511755961890378e-08	4.01882818823661e-08	-5.399735092338835e-07	4.402755280333739e-07	3.245549311846497e-08	1.113598695400338e-07	-5.280948261365111e-07
0.02	-0.01034973155650285	0.1328689740183431	0.9326144179752908	0.1954275059816548	-0.234871405147646	-0.2333852888916226	-0.2916350112263899	0.2331654760485177	0.2331654760485172	0.1471795338696699	0.1698467083344	0.08990154109137109	0.05561982139834117	-0.04063637240832536	-0.03512440534596637	-0.01629538178780624	0.1982466693803635	0.006422842871697373	0.04385145301702358	-0.1235115188865111	0.1967420524953667	0.1967420524953671	-0.06364573884144052	0.005346047378651469	0.05574796497505721	0.02314586247652935	0.1100996941036001	-0.08305747182985866	0.00489243750829604	-0.2617123530025865	0.1441611426073312	-0.09422397319484037	-0.02789530746850416	-29.89203783621535	-0.1716132103169422	-35.92270196325107	0.4048752697529767	-6.895600240011673	-612.7010004615935	50.59672854559233	-2.105155068427151	-1.635780816087637	-0.8216642040788601	9.711170713692937	0.2269590801663273	2.129198162899568	-5.746134910033626	9.637018417656609	9.637018417656632	-2.924628364477975	0.3171700460512161	2.797369276873624	1.046128821432768	1.056652492893954e-07	3.021626450885076e-08	-6.643097176878534e-07	5.098560929435202e-07	5.815615803934885e-08	-2.724942506292355e-08	-6.397428608201107e-07
0.03	-0.01085550757245166	0.1324366537823338	0.9324112854355331	0.1978839981855118	-0.2347935209603949	-0.2328413167907431	-0.2931591053797534	0.2356059364872919	0.2356059364872941	0.1463943307163721	0.1699129366981523	0.09059654156392789	0.0559058295165511	-0.06042620422634985	-0.05128874293538405	-0.02433187460565894	0.2926416331063835	0.009138819706296953	0.06480744991716643	-0.1809524199360342	0.2909078312400082	0.2909078312400086	-0.09323223041533328	0.007877836087635256	0.0830827907270925	0.03399656300399218	0.1040363804701916	-0.08277753435742956	0.005626613180027868	-0.2545639599871357	0.1336479503500144	-0.08948041344576181	-0.02309595071841624	-29.915223493636	-3.301151184352463	-34.27511159624324	-0.01248014664926736	-5.192186905362772	-612.9149284343224	52.7894477012825	-1.901996678628066	-1.599113657074758	-0.7947600968572768	9.242143614860355	0.2916424139959225	2.058573744860848	-5.689833925012939	9.240005783765838	9.240005783765815	-2.951312921903348	0.2180140146736913	2.676149763238259	1.095617073318851	1.147576574822513e-07	2.861117598841069e-08	-6.907290550478136e-07	5.800817313662481e-07	6.442404175290877e-08	-8.471178545099442e-08	-7.027145809053156e-07
0.04	-0.01155640179460388	0.1318442194850893	0.9321277643123531	0.2012721369091929	-0.2346889319190182	-0.2320918300626046	-0.2952469617881315	0.238974784349697	0.2389747843496967	0.1453181319737295	0.1700038490952519	0.09155981240177929	0.05629855992101885	-0.07966001364990732	-0.06714721759300706	-0.03237309847224249	0.3845759733445553	0.01176381369646331	0.08495437846887909	-0.236263969889618	0.3824195372205664	0.3824195372205667	-0.1218448567115655	0.01028285405068792	0.1094020380339199	0.04449031972808869	0.097973066836783	-0.08249759688500315	0.006360788851713229	-0.2474155669716783	0.1231347580926979	-0.08473685369668593	-0.01829659396832876	-29.94604944844923	-6.35688618263796	-32.63438681045876	-0.4061380294672908	-3.426359001467563	-611.9205669376418	54.67234025004607	-1.993950589533812	-1.57460822972865	-0.8226104138250315	9.219046016123302	0.2087625112796921	1.967384493213528	-5.320264690845801	9.106203864839941	9.106203864839934	-2.729855308945881	0.2918158968649812	2.594253587832111	0.9747400607595328	1.236138743044344e-07	2.717860146494125e-08	-7.151294878491344e-07	6.503206702737716e-07	7.029124956528674e-08	-1.405010131748408e-07	-7.646826656379762e-07
0.05	-0.01244735960738051	0.1310952058132773	0.931763544851949	0.2055672326934915	-0.2345589285395313	-0.2311454538602963	-0.2978763192050343	0.2432455535654549	0.2432455535654558	0.1439615328457008	0.1701186682468652	0.09278161704030423	0.05679413302570014	-0.09844141439039665	-0.08255579607350558	-0.04048902211664755	0.4739655156259616	0.01421023917625087	0.104192828291286	-0.2892080277037001	0.4712728532341701	0.4712728532341706	-0.1492725499010116	0.01263001988352878	0.1348354509244045	0.05456662931520533	0.0924124153404048	-0.07621582965637137	0.006810683167842315	-0.2431047236309364	0.1185636804015116	-0.08534725127696305	-0.01370384657971962	-29.98331784655598	-7.790215001072869	-33.19519520915827	-0.265617745415013	-3.116359359736579	-611.2454940385491	51.95278469031432	-1.806704219466438	-1.509010447035399	-0.8088461669941018	8.727265176466513	0.2586117917718767	1.882994469850868	-5.221553458714406	8.705652770675117	8.705652770675131	-2.718908815634724	0.198647188332444	2.499379317698225	1.015391224612038	1.06315533817954e-07	1.322781453544463e-08	-5.694018965095925e-07	6.008736811454938e-07	6.594642303140238e-08	-2.196793171446252e-07	-6.730571182524739e-07
0.06	-0.01352342530819039	0.1301951007986955	0.9313176135896519	0.2107418952690706	-0.2344052550601572	-0.2300105093111454	-0.3010231326264822	0.2483910074015626	0.2483910074015624	0.1423367202874505	0.1702554551091656	0.0942540546433422	0.05738873218963748	-0.1166815912572968	-0.09736548614697206	-0.04871545885087712	0.5604893316000554	0.01649783367378162	0.1226680478375581	-0.3397551707987903	0.5573564612899548	0.5573564612899552	-0.1754875427580903	0.0146763961899212	0.1595286309365537	0.06429553157929571	0.08685176384403212	-0.06993406242773788	0.007260577483941526	-0.2387938802901871	0.1139926027103279	-0.08595764885723677	-0.009111099191107957	-30.02537907717434	-9.158632614477039	-33.76564217915946	-0.09956908201676651	-2.755234207615745	-609.4968239403365	48.95252100180037	-1.885705814816035	-1.454830548322198	-0.8447130317899357	8.645900754660806	0.1769963148283384	1.814738437986578	-4.840881747047438	8.552262273276101	8.552262273276082	-2.48731524247244	0.2316579915752828	2.446207012165078	0.9052585961543085	8.791594881321413e-08	-1.250055021674186e-09	-4.16511019943067e-07	5.463872845209716e-07	6.117161610399117e-08	-2.998424243247649e-07	-5.749644705672595e-07
0.07000000000000001	-0.01477980798787223	0.1291498085774123	0.9307886117461102	0.2167683897280759	-0.2342299511920864	-0.2286954760279126	-0.3046631873192767	0.2543839239082162	0.2543839239082173	0.1404566536367437	0.1704122474453015	0.09596957794393005	0.05807832243246011	-0.1345190890043677	-0.1116004463254124	-0.05711895354621039	0.6443732341674184	0.01854840013973428	0.1401998608766997	-0.3878835008093212	0.6407861140857571	0.6407861140857574	-0.2003502469006181	0.01662501120000495	0.1834523407618587	0.07358198884022429	0.08113735999452538	-0.07094918221690409	0.007768955161600545	-0.2348932685762283	0.1078621946517348	-0.08014142073351757	-0.004507094801895163	-30.07057206706878	-10.70403592483873	-31.46288582175188	-0.5207847532920796	-2.42920612694158	-608.0213286382523	51.99047687267529	-1.721381216984562	-1.393939808404303	-0.8433351818786737	8.194192480243515	0.2169547475960385	1.701686864296637	-4.742968585539753	8.172190529249081	8.172190529249045	-2.459423644448014	0.1680031760238924	2.346900446782753	0.9342616916826003	6.388581721030921e-08	-1.451309792870086e-08	-2.19110400661568e-07	4.966449392175222e-07	5.015956372886437e-08	-3.472308129169123e-07	-4.63692265335028e-07
